# Blender 4.2.1 LTS
# www.blender.org
mtllib head.mtl
o Sphere
v 0.001951 0.382683 -0.740995
v 0.001951 0.000000 -0.716603
v 0.001951 -0.382683 -0.662055
v 0.001951 -0.923880 -0.306930
v 0.134847 0.865376 -0.283567
v 0.247511 0.707107 -0.523962
v 0.322790 0.382683 -0.684590
v 0.349225 0.000000 -0.662055
v 0.322790 -0.382683 -0.611659
v 0.247511 -0.707107 -0.468144
v 0.134847 -0.923880 -0.283567
v 0.247511 0.865376 -0.217032
v 0.455686 0.707107 -0.401024
v 0.594784 0.382683 -0.523962
v 0.497736 0.000000 -0.567133
v 0.538964 -0.382683 -0.523962
v 0.455686 -0.707107 -0.401024
v 0.247511 -0.923880 -0.217032
v 0.464100 0.865376 -0.117457
v 0.674056 0.707107 -0.217032
v 0.776525 0.382683 -0.283566
v 0.694451 0.000000 -0.306930
v 0.693532 -0.424651 -0.283566
v 0.739541 -0.707107 -0.217032
v 0.322790 -0.923880 -0.117457
v 0.490535 0.865376 0.000000
v 0.722901 0.707107 0.000000
v 0.840344 0.382683 0.000000
v 0.763528 0.000000 0.000000
v 0.778031 -0.424651 0.000000
v 0.788386 -0.707107 0.000000
v 0.349225 -0.923880 0.000000
v 0.464100 0.865376 0.117457
v 0.674056 0.707107 0.217032
v 0.776525 0.382683 0.283567
v 0.694450 0.000000 0.306930
v 0.693532 -0.424651 0.283567
v 0.739541 -0.707107 0.217032
v 0.322790 -0.923880 0.117457
v 0.247511 0.865376 0.217032
v 0.455686 0.707107 0.401024
v 0.594784 0.382683 0.523963
v 0.497736 0.000000 0.567133
v 0.538964 -0.382683 0.523963
v 0.455686 -0.707107 0.401024
v 0.247511 -0.923880 0.217032
v 0.134847 0.865376 0.283566
v 0.247511 0.707107 0.523962
v 0.322790 0.382683 0.684590
v 0.349225 0.000000 0.662055
v 0.322790 -0.382683 0.611659
v 0.247511 -0.707107 0.468143
v 0.134847 -0.923880 0.283566
v 0.001951 0.865376 0.306930
v 0.001951 0.707107 0.567133
v 0.001951 0.382683 0.740995
v 0.001951 0.000000 0.716603
v 0.001951 -0.382683 0.662055
v 0.001951 -0.707107 0.506715
v 0.001951 -0.923880 0.306930
v 0.001951 -1.000000 -0.000000
v 0.001951 0.941497 -0.000000
v -0.130945 0.865376 0.283566
v -0.243608 0.707107 0.523962
v -0.318888 0.382683 0.684590
v -0.345322 0.000000 0.662055
v -0.318888 -0.382683 0.611659
v -0.243608 -0.707107 0.468143
v -0.130945 -0.923880 0.283566
v -0.243608 0.865376 0.217032
v -0.451783 0.707107 0.401023
v -0.590882 0.382683 0.523962
v -0.579591 0.000000 0.484713
v -0.461569 -0.382683 0.447816
v -0.362303 -0.707107 0.401023
v -0.243608 -0.923880 0.217032
v -0.318888 0.865376 0.117457
v -0.597949 0.707107 0.217032
v -0.704176 0.382683 0.283566
v -0.725654 0.000000 0.306930
v -0.616009 -0.382683 0.283566
v -0.501444 -0.707107 0.217032
v -0.318888 -0.923880 0.117457
v -0.345322 0.865376 -0.000000
v -0.626499 0.707107 -0.000000
v -0.741479 0.382683 -0.000000
v -0.766029 0.000000 -0.000000
v -0.653311 -0.382683 -0.000000
v -0.529994 -0.707107 -0.000000
v -0.345322 -0.923880 -0.000000
v -0.318887 0.865376 -0.117457
v -0.597948 0.707107 -0.217033
v -0.704176 0.382683 -0.283567
v -0.725653 0.000000 -0.306931
v -0.616008 -0.382683 -0.283567
v -0.501444 -0.707107 -0.217033
v -0.318887 -0.923880 -0.117457
v -0.243608 0.865376 -0.217033
v -0.451783 0.707107 -0.401024
v -0.590881 0.382683 -0.523963
v -0.579591 0.000000 -0.484713
v -0.461568 -0.382683 -0.447817
v -0.362302 -0.707107 -0.401024
v -0.243608 -0.923880 -0.217033
v -0.130944 0.865376 -0.283567
v -0.243608 0.707107 -0.523962
v -0.318887 0.382683 -0.684590
v -0.345322 0.000000 -0.662055
v -0.318887 -0.382683 -0.611659
v -0.243608 -0.707107 -0.468144
v -0.130944 -0.923880 -0.283567
v 0.001952 0.865376 -0.306930
v 0.001952 0.707107 -0.567133
v 0.001952 -0.707107 -0.506715
v 0.001951 -0.191342 -0.689329
v 0.336008 -0.191342 -0.636857
v 0.591297 -0.191342 -0.545548
v 0.781989 -0.191342 -0.295248
v 0.858777 -0.191342 0.000000
v 0.781989 -0.191342 0.295248
v 0.591296 -0.191342 0.545548
v 0.336007 -0.191342 0.636857
v 0.001951 -0.191342 0.689329
v -0.332105 -0.191342 0.636857
v -0.520580 -0.191342 0.466265
v -0.670831 -0.191342 0.295248
v -0.709670 -0.191342 -0.000000
v -0.670831 -0.191342 -0.295249
v -0.520579 -0.191342 -0.466265
v -0.332104 -0.191342 -0.636857
v 0.001951 0.191342 -0.728799
v 0.336008 0.191342 -0.673322
v 0.521484 0.191342 -0.545548
v 0.710712 0.191342 -0.295248
v 0.777160 0.191342 0.000000
v 0.710712 0.191342 0.295248
v 0.521484 0.191342 0.545548
v 0.336007 0.191342 0.673322
v 0.001951 0.191342 0.728799
v -0.332105 0.191342 0.673322
v -0.585236 0.191342 0.504338
v -0.714915 0.191342 0.295248
v -0.753754 0.191342 -0.000000
v -0.714915 0.191342 -0.295249
v -0.585236 0.191342 -0.504338
v -0.332104 0.191342 -0.673323
vn -0.0000 0.2105 -0.9776
vn -0.0000 -0.0981 -0.9952
vn -0.0000 -0.2858 -0.9583
vn -0.0000 -0.8476 -0.5306
vn 0.1347 0.9191 -0.3703
vn 0.2540 0.6781 -0.6897
vn 0.3410 0.2120 -0.9158
vn 0.3342 -0.0521 -0.9410
vn 0.2439 -0.2923 -0.9247
vn 0.2147 -0.5737 -0.7904
vn 0.1452 -0.8571 -0.4943
vn 0.1946 0.9217 -0.3357
vn 0.4378 0.6663 -0.6037
vn 0.6630 0.1463 -0.7342
vn 0.6237 0.0484 -0.7802
vn 0.5343 -0.2953 -0.7920
vn 0.4245 -0.5821 -0.6935
vn 0.2468 -0.8870 -0.3902
vn 0.3284 0.9129 -0.2422
vn 0.6862 0.6170 -0.3852
vn 0.8991 0.0569 -0.4340
vn 0.8834 0.1640 -0.4390
vn 0.8397 -0.2303 -0.4917
vn 0.7650 -0.4944 -0.4127
vn 0.3166 -0.9250 -0.2100
vn 0.3936 0.9193 -0.0000
vn 0.8051 0.5931 -0.0000
vn 0.9999 0.0136 -0.0000
vn 0.9818 0.1898 -0.0000
vn 0.9890 -0.1479 -0.0000
vn 0.8831 -0.4692 -0.0000
vn 0.3458 -0.9383 -0.0000
vn 0.3284 0.9129 0.2422
vn 0.6862 0.6170 0.3852
vn 0.8991 0.0569 0.4340
vn 0.8834 0.1640 0.4390
vn 0.8397 -0.2303 0.4917
vn 0.7650 -0.4944 0.4127
vn 0.3166 -0.9250 0.2100
vn 0.1946 0.9217 0.3357
vn 0.4378 0.6663 0.6037
vn 0.6630 0.1463 0.7342
vn 0.6237 0.0484 0.7802
vn 0.5343 -0.2953 0.7920
vn 0.4245 -0.5821 0.6935
vn 0.2468 -0.8870 0.3902
vn 0.1347 0.9191 0.3703
vn 0.2540 0.6781 0.6897
vn 0.3410 0.2120 0.9158
vn 0.3342 -0.0521 0.9410
vn 0.2439 -0.2923 0.9247
vn 0.2147 -0.5737 0.7904
vn 0.1452 -0.8571 0.4943
vn -0.0000 0.9171 0.3987
vn -0.0000 0.6734 0.7393
vn -0.0000 0.2105 0.9776
vn -0.0000 -0.0981 0.9952
vn -0.0000 -0.2858 0.9583
vn -0.0000 -0.5558 0.8313
vn -0.0000 -0.8476 0.5306
vn -0.0000 -1.0000 -0.0000
vn -0.0177 0.9998 -0.0000
vn -0.1347 0.9191 0.3703
vn -0.2540 0.6781 0.6897
vn -0.3405 0.2127 0.9159
vn -0.3975 -0.1161 0.9102
vn -0.4228 -0.2936 0.8573
vn -0.3243 -0.5579 0.7639
vn -0.1696 -0.8544 0.4911
vn -0.2502 0.9243 0.2882
vn -0.5046 0.6797 0.5323
vn -0.6985 0.2155 0.6824
vn -0.7025 -0.1333 0.6991
vn -0.6891 -0.2961 0.6614
vn -0.5835 -0.5316 0.6139
vn -0.3455 -0.8586 0.3787
vn -0.3348 0.9300 0.1519
vn -0.7194 0.6428 0.2633
vn -0.9253 0.2122 0.3142
vn -0.9164 -0.1249 0.3803
vn -0.8591 -0.3198 0.3996
vn -0.7838 -0.5193 0.3406
vn -0.4831 -0.8514 0.2043
vn -0.3688 0.9295 -0.0000
vn -0.7738 0.6334 -0.0000
vn -0.9801 0.1987 -0.0000
vn -0.9940 -0.1094 -0.0000
vn -0.9480 -0.3182 -0.0000
vn -0.8597 -0.5108 -0.0000
vn -0.5382 -0.8428 -0.0000
vn -0.3348 0.9300 -0.1519
vn -0.7194 0.6428 -0.2633
vn -0.9253 0.2122 -0.3142
vn -0.9164 -0.1249 -0.3803
vn -0.8591 -0.3198 -0.3996
vn -0.7838 -0.5193 -0.3406
vn -0.4831 -0.8514 -0.2043
vn -0.2502 0.9243 -0.2882
vn -0.5046 0.6797 -0.5323
vn -0.6985 0.2155 -0.6824
vn -0.7025 -0.1333 -0.6991
vn -0.6891 -0.2961 -0.6614
vn -0.5835 -0.5316 -0.6139
vn -0.3455 -0.8586 -0.3787
vn -0.1347 0.9191 -0.3703
vn -0.2540 0.6781 -0.6897
vn -0.3405 0.2127 -0.9159
vn -0.3975 -0.1161 -0.9102
vn -0.4228 -0.2936 -0.8573
vn -0.3243 -0.5579 -0.7639
vn -0.1696 -0.8544 -0.4911
vn -0.0000 0.9171 -0.3987
vn -0.0000 0.6734 -0.7393
vn -0.0000 -0.5558 -0.8313
vn -0.0000 -0.1411 -0.9900
vn 0.2711 -0.1202 -0.9550
vn 0.6483 -0.0280 -0.7608
vn 0.9092 0.0277 -0.4155
vn 0.9992 0.0405 -0.0000
vn 0.9092 0.0277 0.4155
vn 0.6483 -0.0280 0.7608
vn 0.2711 -0.1202 0.9550
vn -0.0000 -0.1411 0.9900
vn -0.4234 -0.1806 0.8878
vn -0.6909 -0.2365 0.6832
vn -0.8731 -0.2843 0.3960
vn -0.9593 -0.2825 -0.0000
vn -0.8731 -0.2843 -0.3960
vn -0.6909 -0.2365 -0.6832
vn -0.4234 -0.1806 -0.8878
vn -0.0000 -0.0555 -0.9985
vn 0.3609 -0.0427 -0.9316
vn 0.6711 -0.0730 -0.7378
vn 0.8916 -0.1649 -0.4218
vn 0.9804 -0.1972 -0.0000
vn 0.8916 -0.1649 0.4218
vn 0.6711 -0.0730 0.7378
vn 0.3609 -0.0427 0.9316
vn -0.0000 -0.0555 0.9985
vn -0.3665 -0.0567 0.9287
vn -0.7191 -0.0285 0.6943
vn -0.9410 0.0327 0.3368
vn -0.9979 0.0640 -0.0000
vn -0.9410 0.0327 -0.3368
vn -0.7191 -0.0285 -0.6943
vn -0.3665 -0.0567 -0.9287
vt 0.750000 0.125000
vt 0.750000 0.250000
vt 0.687500 0.250000
vt 0.687500 0.125000
vt 0.750000 0.437500
vt 0.750000 0.500000
vt 0.687500 0.500000
vt 0.687500 0.437500
vt 0.750000 0.625000
vt 0.750000 0.750000
vt 0.687500 0.750000
vt 0.687500 0.625000
vt 0.750000 0.875000
vt 0.718750 1.000000
vt 0.687500 0.875000
vt 0.718750 0.000000
vt 0.750000 0.375000
vt 0.687500 0.375000
vt 0.750000 0.562500
vt 0.687500 0.562500
vt 0.656250 1.000000
vt 0.625000 0.875000
vt 0.656250 0.000000
vt 0.625000 0.125000
vt 0.625000 0.375000
vt 0.625000 0.250000
vt 0.625000 0.625000
vt 0.625000 0.562500
vt 0.625000 0.750000
vt 0.625000 0.500000
vt 0.625000 0.437500
vt 0.562500 0.375000
vt 0.562500 0.250000
vt 0.562500 0.625000
vt 0.562500 0.562500
vt 0.562500 0.875000
vt 0.562500 0.750000
vt 0.562500 0.125000
vt 0.562500 0.500000
vt 0.562500 0.437500
vt 0.593750 1.000000
vt 0.593750 0.000000
vt 0.500000 0.250000
vt 0.500000 0.125000
vt 0.500000 0.500000
vt 0.500000 0.437500
vt 0.500000 0.750000
vt 0.500000 0.625000
vt 0.531250 1.000000
vt 0.500000 0.875000
vt 0.531250 0.000000
vt 0.500000 0.375000
vt 0.500000 0.562500
vt 0.437500 0.500000
vt 0.437500 0.437500
vt 0.437500 0.750000
vt 0.437500 0.625000
vt 0.468750 1.000000
vt 0.437500 0.875000
vt 0.468750 0.000000
vt 0.437500 0.125000
vt 0.437500 0.375000
vt 0.437500 0.250000
vt 0.437500 0.562500
vt 0.406250 0.000000
vt 0.375000 0.125000
vt 0.375000 0.375000
vt 0.375000 0.250000
vt 0.375000 0.625000
vt 0.375000 0.562500
vt 0.375000 0.875000
vt 0.375000 0.750000
vt 0.375000 0.500000
vt 0.375000 0.437500
vt 0.406250 1.000000
vt 0.312500 0.625000
vt 0.312500 0.562500
vt 0.312500 0.875000
vt 0.312500 0.750000
vt 0.312500 0.250000
vt 0.312500 0.125000
vt 0.312500 0.500000
vt 0.312500 0.437500
vt 0.343750 1.000000
vt 0.343750 0.000000
vt 0.312500 0.375000
vt 0.250000 0.250000
vt 0.250000 0.125000
vt 0.250000 0.500000
vt 0.250000 0.437500
vt 0.250000 0.750000
vt 0.250000 0.625000
vt 0.281250 1.000000
vt 0.250000 0.875000
vt 0.281250 0.000000
vt 0.250000 0.375000
vt 0.250000 0.562500
vt 0.187500 0.750000
vt 0.187500 0.625000
vt 0.218750 1.000000
vt 0.187500 0.875000
vt 0.218750 0.000000
vt 0.187500 0.125000
vt 0.187500 0.375000
vt 0.187500 0.250000
vt 0.187500 0.562500
vt 0.187500 0.500000
vt 0.187500 0.437500
vt 0.156250 0.000000
vt 0.125000 0.125000
vt 0.125000 0.375000
vt 0.125000 0.250000
vt 0.125000 0.625000
vt 0.125000 0.562500
vt 0.125000 0.875000
vt 0.125000 0.750000
vt 0.125000 0.500000
vt 0.125000 0.437500
vt 0.156250 1.000000
vt 0.062500 0.875000
vt 0.062500 0.750000
vt 0.062500 0.250000
vt 0.062500 0.125000
vt 0.062500 0.500000
vt 0.062500 0.437500
vt 0.062500 0.625000
vt 0.093750 1.000000
vt 0.093750 0.000000
vt 0.062500 0.375000
vt 0.062500 0.562500
vt 0.000000 0.250000
vt 0.000000 0.125000
vt 0.000000 0.500000
vt 0.000000 0.437500
vt 0.000000 0.750000
vt 0.000000 0.625000
vt 0.031250 1.000000
vt 0.000000 0.875000
vt 0.031250 0.000000
vt 0.000000 0.375000
vt 0.000000 0.562500
vt 1.000000 0.875000
vt 0.968750 1.000000
vt 0.937500 0.875000
vt 0.968750 0.000000
vt 1.000000 0.125000
vt 0.937500 0.125000
vt 1.000000 0.250000
vt 1.000000 0.375000
vt 0.937500 0.375000
vt 0.937500 0.250000
vt 1.000000 0.562500
vt 1.000000 0.625000
vt 0.937500 0.625000
vt 0.937500 0.562500
vt 1.000000 0.750000
vt 0.937500 0.750000
vt 1.000000 0.437500
vt 1.000000 0.500000
vt 0.937500 0.500000
vt 0.937500 0.437500
vt 0.875000 0.375000
vt 0.875000 0.250000
vt 0.875000 0.625000
vt 0.875000 0.562500
vt 0.875000 0.875000
vt 0.875000 0.750000
vt 0.875000 0.125000
vt 0.875000 0.500000
vt 0.875000 0.437500
vt 0.906250 1.000000
vt 0.906250 0.000000
vt 0.812500 0.250000
vt 0.812500 0.125000
vt 0.812500 0.500000
vt 0.812500 0.437500
vt 0.812500 0.750000
vt 0.812500 0.625000
vt 0.843750 1.000000
vt 0.812500 0.875000
vt 0.843750 0.000000
vt 0.812500 0.375000
vt 0.812500 0.562500
vt 0.781250 1.000000
vt 0.781250 0.000000
s 1
usemtl Material
f 4/1/4 114/2/114 10/3/10 11/4/11
f 115/5/115 2/6/2 8/7/8 116/8/116
f 1/9/1 113/10/113 6/11/6 7/12/7
f 112/13/112 62/14/62 5/15/5
f 61/16/61 4/1/4 11/4/11
f 114/2/114 3/17/3 9/18/9 10/3/10
f 131/19/131 1/9/1 7/12/7 132/20/132
f 113/10/113 112/13/112 5/15/5 6/11/6
f 5/15/5 62/21/62 12/22/12
f 61/23/61 11/4/11 18/24/18
f 10/3/10 9/18/9 16/25/16 17/26/17
f 132/20/132 7/12/7 14/27/14 133/28/133
f 6/11/6 5/15/5 12/22/12 13/29/13
f 11/4/11 10/3/10 17/26/17 18/24/18
f 116/8/116 8/7/8 15/30/15 117/31/117
f 7/12/7 6/11/6 13/29/13 14/27/14
f 17/26/17 16/25/16 23/32/23 24/33/24
f 133/28/133 14/27/14 21/34/21 134/35/134
f 13/29/13 12/22/12 19/36/19 20/37/20
f 18/24/18 17/26/17 24/33/24 25/38/25
f 117/31/117 15/30/15 22/39/22 118/40/118
f 14/27/14 13/29/13 20/37/20 21/34/21
f 12/22/12 62/41/62 19/36/19
f 61/42/61 18/24/18 25/38/25
f 25/38/25 24/33/24 31/43/31 32/44/32
f 118/40/118 22/39/22 29/45/29 119/46/119
f 21/34/21 20/37/20 27/47/27 28/48/28
f 19/36/19 62/49/62 26/50/26
f 61/51/61 25/38/25 32/44/32
f 24/33/24 23/32/23 30/52/30 31/43/31
f 134/35/134 21/34/21 28/48/28 135/53/135
f 20/37/20 19/36/19 26/50/26 27/47/27
f 119/46/119 29/45/29 36/54/36 120/55/120
f 28/48/28 27/47/27 34/56/34 35/57/35
f 26/50/26 62/58/62 33/59/33
f 61/60/61 32/44/32 39/61/39
f 31/43/31 30/52/30 37/62/37 38/63/38
f 135/53/135 28/48/28 35/57/35 136/64/136
f 27/47/27 26/50/26 33/59/33 34/56/34
f 32/44/32 31/43/31 38/63/38 39/61/39
f 61/65/61 39/61/39 46/66/46
f 38/63/38 37/62/37 44/67/44 45/68/45
f 136/64/136 35/57/35 42/69/42 137/70/137
f 34/56/34 33/59/33 40/71/40 41/72/41
f 39/61/39 38/63/38 45/68/45 46/66/46
f 120/55/120 36/54/36 43/73/43 121/74/121
f 35/57/35 34/56/34 41/72/41 42/69/42
f 33/59/33 62/75/62 40/71/40
f 137/70/137 42/69/42 49/76/49 138/77/138
f 41/72/41 40/71/40 47/78/47 48/79/48
f 46/66/46 45/68/45 52/80/52 53/81/53
f 121/74/121 43/73/43 50/82/50 122/83/122
f 42/69/42 41/72/41 48/79/48 49/76/49
f 40/71/40 62/84/62 47/78/47
f 61/85/61 46/66/46 53/81/53
f 45/68/45 44/67/44 51/86/51 52/80/52
f 53/81/53 52/80/52 59/87/59 60/88/60
f 122/83/122 50/82/50 57/89/57 123/90/123
f 49/76/49 48/79/48 55/91/55 56/92/56
f 47/78/47 62/93/62 54/94/54
f 61/95/61 53/81/53 60/88/60
f 52/80/52 51/86/51 58/96/58 59/87/59
f 138/77/138 49/76/49 56/92/56 139/97/139
f 48/79/48 47/78/47 54/94/54 55/91/55
f 56/92/56 55/91/55 64/98/64 65/99/65
f 54/94/54 62/100/62 63/101/63
f 61/102/61 60/88/60 69/103/69
f 59/87/59 58/96/58 67/104/67 68/105/68
f 139/97/139 56/92/56 65/99/65 140/106/140
f 55/91/55 54/94/54 63/101/63 64/98/64
f 60/88/60 59/87/59 68/105/68 69/103/69
f 123/90/123 57/89/57 66/107/66 124/108/124
f 61/109/61 69/103/69 76/110/76
f 68/105/68 67/104/67 74/111/74 75/112/75
f 140/106/140 65/99/65 72/113/72 141/114/141
f 64/98/64 63/101/63 70/115/70 71/116/71
f 69/103/69 68/105/68 75/112/75 76/110/76
f 124/108/124 66/107/66 73/117/73 125/118/125
f 65/99/65 64/98/64 71/116/71 72/113/72
f 63/101/63 62/119/62 70/115/70
f 71/116/71 70/115/70 77/120/77 78/121/78
f 76/110/76 75/112/75 82/122/82 83/123/83
f 125/118/125 73/117/73 80/124/80 126/125/126
f 72/113/72 71/116/71 78/121/78 79/126/79
f 70/115/70 62/127/62 77/120/77
f 61/128/61 76/110/76 83/123/83
f 75/112/75 74/111/74 81/129/81 82/122/82
f 141/114/141 72/113/72 79/126/79 142/130/142
f 83/123/83 82/122/82 89/131/89 90/132/90
f 126/125/126 80/124/80 87/133/87 127/134/127
f 79/126/79 78/121/78 85/135/85 86/136/86
f 77/120/77 62/137/62 84/138/84
f 61/139/61 83/123/83 90/132/90
f 82/122/82 81/129/81 88/140/88 89/131/89
f 142/130/142 79/126/79 86/136/86 143/141/143
f 78/121/78 77/120/77 84/138/84 85/135/85
f 84/142/84 62/143/62 91/144/91
f 61/145/61 90/146/90 97/147/97
f 89/148/89 88/149/88 95/150/95 96/151/96
f 143/152/143 86/153/86 93/154/93 144/155/144
f 85/156/85 84/142/84 91/144/91 92/157/92
f 90/146/90 89/148/89 96/151/96 97/147/97
f 127/158/127 87/159/87 94/160/94 128/161/128
f 86/153/86 85/156/85 92/157/92 93/154/93
f 96/151/96 95/150/95 102/162/102 103/163/103
f 144/155/144 93/154/93 100/164/100 145/165/145
f 92/157/92 91/144/91 98/166/98 99/167/99
f 97/147/97 96/151/96 103/163/103 104/168/104
f 128/161/128 94/160/94 101/169/101 129/170/129
f 93/154/93 92/157/92 99/167/99 100/164/100
f 91/144/91 62/171/62 98/166/98
f 61/172/61 97/147/97 104/168/104
f 104/168/104 103/163/103 110/173/110 111/174/111
f 129/170/129 101/169/101 108/175/108 130/176/130
f 100/164/100 99/167/99 106/177/106 107/178/107
f 98/166/98 62/179/62 105/180/105
f 61/181/61 104/168/104 111/174/111
f 103/163/103 102/162/102 109/182/109 110/173/110
f 145/165/145 100/164/100 107/178/107 146/183/146
f 99/167/99 98/166/98 105/180/105 106/177/106
f 130/176/130 108/175/108 2/6/2 115/5/115
f 107/178/107 106/177/106 113/10/113 1/9/1
f 105/180/105 62/184/62 112/13/112
f 61/185/61 111/174/111 4/1/4
f 110/173/110 109/182/109 3/17/3 114/2/114
f 146/183/146 107/178/107 1/9/1 131/19/131
f 106/177/106 105/180/105 112/13/112 113/10/113
f 111/174/111 110/173/110 114/2/114 4/1/4
f 109/182/109 130/176/130 115/5/115 3/17/3
f 102/162/102 129/170/129 130/176/130 109/182/109
f 95/150/95 128/161/128 129/170/129 102/162/102
f 88/149/88 127/158/127 128/161/128 95/150/95
f 81/129/81 126/125/126 127/134/127 88/140/88
f 74/111/74 125/118/125 126/125/126 81/129/81
f 67/104/67 124/108/124 125/118/125 74/111/74
f 58/96/58 123/90/123 124/108/124 67/104/67
f 51/86/51 122/83/122 123/90/123 58/96/58
f 44/67/44 121/74/121 122/83/122 51/86/51
f 37/62/37 120/55/120 121/74/121 44/67/44
f 30/52/30 119/46/119 120/55/120 37/62/37
f 23/32/23 118/40/118 119/46/119 30/52/30
f 16/25/16 117/31/117 118/40/118 23/32/23
f 9/18/9 116/8/116 117/31/117 16/25/16
f 3/17/3 115/5/115 116/8/116 9/18/9
f 108/175/108 146/183/146 131/19/131 2/6/2
f 101/169/101 145/165/145 146/183/146 108/175/108
f 94/160/94 144/155/144 145/165/145 101/169/101
f 87/159/87 143/152/143 144/155/144 94/160/94
f 80/124/80 142/130/142 143/141/143 87/133/87
f 73/117/73 141/114/141 142/130/142 80/124/80
f 66/107/66 140/106/140 141/114/141 73/117/73
f 57/89/57 139/97/139 140/106/140 66/107/66
f 50/82/50 138/77/138 139/97/139 57/89/57
f 43/73/43 137/70/137 138/77/138 50/82/50
f 36/54/36 136/64/136 137/70/137 43/73/43
f 29/45/29 135/53/135 136/64/136 36/54/36
f 22/39/22 134/35/134 135/53/135 29/45/29
f 15/30/15 133/28/133 134/35/134 22/39/22
f 8/7/8 132/20/132 133/28/133 15/30/15
f 2/6/2 131/19/131 132/20/132 8/7/8
